<?xml version="1.0" encoding="UTF-8" standalone="no"?>
<!DOCTYPE svg PUBLIC "-//W3C//DTD SVG 1.1//EN"
 "http://www.w3.org/Graphics/SVG/1.1/DTD/svg11.dtd">
<!-- Generated by graphviz version 12.0.0 (20240704.0754)
 -->
<!-- Title: workflow Pages: 1 -->
<svg width="328pt" height="270pt"
 viewBox="0.00 0.00 328.00 269.50" xmlns="http://www.w3.org/2000/svg" xmlns:xlink="http://www.w3.org/1999/xlink">
<g id="graph0" class="graph" transform="scale(1 1) rotate(0) translate(4 265.5)">
<title>workflow</title>
<polygon fill="white" stroke="none" points="-4,4 -4,-265.5 324,-265.5 324,4 -4,4"/>
<g id="clust1" class="cluster">
<title>cluster0</title>
<polygon fill="none" stroke="black" points="8,-177 8,-253.5 312,-253.5 312,-177 8,-177"/>
<text text-anchor="middle" x="160" y="-236.2" font-family="Times,serif" font-size="14.00">Read catalog structure</text>
</g>
<g id="clust2" class="cluster">
<title>cluster_plan_lazy</title>
<polygon fill="none" stroke="black" points="28,-92.5 28,-169 292,-169 292,-92.5 28,-92.5"/>
<text text-anchor="middle" x="160" y="-151.7" font-family="Times,serif" font-size="14.00">Plan computation</text>
</g>
<g id="clust3" class="cluster">
<title>cluster_compute</title>
<polygon fill="none" stroke="black" points="45,-8 45,-84.5 275,-84.5 275,-8 45,-8"/>
<text text-anchor="middle" x="160" y="-67.2" font-family="Times,serif" font-size="14.00">Read data / Do compute</text>
</g>
<!-- read_hats -->
<g id="node1" class="node">
<title>read_hats</title>
<text text-anchor="middle" x="160" y="-197.95" font-family="Courier,monospace" font-size="14.00">read_hats, from_dataframe, ...</text>
</g>
<!-- crossmatch -->
<g id="node2" class="node">
<title>crossmatch</title>
<text text-anchor="middle" x="160" y="-113.45" font-family="Courier,monospace" font-size="14.00">crossmatch, cone_search, ...</text>
</g>
<!-- read_hats&#45;&gt;crossmatch -->
<g id="edge1" class="edge">
<title>read_hats&#45;&gt;crossmatch</title>
<path fill="none" stroke="black" d="M160,-177C160,-175 160,-173 160,-171"/>
<polygon fill="black" stroke="black" points="163.5,-180.51 160,-170.51 156.5,-180.51 163.5,-180.51"/>
</g>
<!-- compute -->
<g id="node3" class="node">
<title>compute</title>
<text text-anchor="middle" x="160" y="-28.95" font-family="Courier,monospace" font-size="14.00">compute, to_hats, ...</text>
</g>
<!-- crossmatch&#45;&gt;compute -->
<g id="edge2" class="edge">
<title>crossmatch&#45;&gt;compute</title>
<path fill="none" stroke="black" d="M160,-92.5C160,-90.5 160,-88.5 160,-86.5"/>
<polygon fill="black" stroke="black" points="163.5,-96.01 160,-86.01 156.5,-96.01 163.5,-96.01"/>
</g>
</g>
</svg>
